PathFileType	4	(X/Y/Z)	8_2_56_p1_0-292_filt_butterworth.trc
DataRate	CameraRate	NumFrames	NumMarkers	Units	OrigDataRate	OrigDataStartFrame	OrigNumFrames
60.0	60.0	6	27	m	60.0	219	292
Frame#	Time	RHip			RKnee			RAnkle			RBigToe			RSmallToe			RHeel			LHip			LKnee			LAnkle			LBigToe			LSmallToe			LHeel			Neck			Head			Nose			RShoulder			RElbow			RWrist			RThumb			RIndex			RPinky			LShoulder			LElbow			LWrist			LThumb			LIndex			LPinky			
		X1	Y1	Z1	X2	Y2	Z2	X3	Y3	Z3	X4	Y4	Z4	X5	Y5	Z5	X6	Y6	Z6	X7	Y7	Z7	X8	Y8	Z8	X9	Y9	Z9	X10	Y10	Z10	X11	Y11	Z11	X12	Y12	Z12	X13	Y13	Z13	X14	Y14	Z14	X15	Y15	Z15	X16	Y16	Z16	X17	Y17	Z17	X18	Y18	Z18	X19	Y19	Z19	X20	Y20	Z20	X21	Y21	Z21	X22	Y22	Z22	X23	Y23	Z23	X24	Y24	Z24	X25	Y25	Z25	X26	Y26	Z26	X27	Y27	Z27	
219	3.65	0.2682263594812488	0.5731003258210279	0.8171749652779431	0.26873138678254294	0.7216071039406863	1.3175617251276452	0.23132318035680371	0.9106290281917091	1.7279731236923679	0.20894099640066546	0.701922619429322	1.787983641044737	0.27099172429014173	0.7716940845866574	1.8009373917103615	0.21519859528670293	0.9671527830856284	1.7690489399911984	0.0449165130601515	0.5768636609463138	0.8123663312857228	0.034575250153070725	0.7092747595220783	1.2892504071137059	0.03351218561419547	0.8578702395323926	1.702383786019384	0.055986158523917015	0.7151444179078734	1.7894603513818392	-0.006544517688308011	0.736473510906437	1.760738619604266	0.06258644685925012	0.9767953941180882	1.7635801282878052	0.16557325663211153	0.44330328367018984	0.23528458691094556	0.1660924107395594	0.2924079529151759	0.01343101750308918	0.15452285934861992	0.2616758046991635	0.1573353093333272	0.3478382240608603	0.47315815526661564	0.3671896250179616	0.3874423274949843	0.5641462507112545	0.6370724910663682	0.39234973602050865	0.4953375244065584	0.8878594592020539	0.34839031554873	0.4493491592946624	0.9903264946071184	0.3721348347085378	0.424469895951421	1.0148820098763667	0.3840932777119523	0.48467277146646043	1.0237521860705678	0.005114749318042739	0.5428086507896566	0.32305111616756244	-0.01692074943719245	0.6568567555226686	0.6001700808889548	-0.06507991971910926	0.5485257815772051	0.8214277668940043	-0.04785346724312711	0.41452355800881713	0.9055401223144229	-0.0867682302121237	0.44667683942533537	0.9160403454561749	-0.09339437593705464	0.49347347856795165	0.9194004128827237
220	3.6666666666666665	0.2673079335286137	0.5754548591391705	0.8152496140949133	0.26942216917620865	0.7231945465802015	1.3188962213059114	0.23133368864614462	0.9106587597901817	1.727988813993228	0.20886900469266922	0.7018832076943795	1.7880709592277428	0.2708580884395582	0.7716440332461209	1.8004612364850123	0.21696661554847602	0.967104423997327	1.7681964215422663	0.04536574079383838	0.5761702205231947	0.8118156474198134	0.03501298461206882	0.7112437270669538	1.2866427810950756	0.03288055870941169	0.8563398964474501	1.7023627947293751	0.056079794521739994	0.715011729569728	1.7894447854318971	-0.00662213834984068	0.7364825286575951	1.7609063069403463	0.06258583759597285	0.9767017680909417	1.7635480488666964	0.1654861866299638	0.44335578282092436	0.23525586223617112	0.1697057838798363	0.29619231053948125	0.01274198736026015	0.15503787630700283	0.2616179191965981	0.1571800226665776	0.34362261760309987	0.4668682691003325	0.3673166196303941	0.387778588961423	0.5638694007909641	0.640705834016357	0.38828916817516307	0.514730998785028	0.8953662256202701	0.3374349882630294	0.47210189771712774	1.0029540500377037	0.36591146640912287	0.4386389427563093	1.0357119519038451	0.379869507164616	0.5070808688502328	1.0462102725292752	0.004655233789257902	0.54086124283784	0.3224083497301112	-0.01796458124411814	0.6577325591827992	0.6014024457139783	-0.06337385887788811	0.551330041050595	0.8233654678967697	-0.04603837326684235	0.4186532031349425	0.9099113632372413	-0.08087599633997064	0.4429882071961358	0.9200780096744504	-0.08902319284085215	0.49628809925594186	0.920356614098861
221	3.683333333333333	0.26671256496978113	0.576100411124505	0.8130404706121188	0.269516948661642	0.7231568571709096	1.3183049606434243	0.23127050215111927	0.9106083126877806	1.7279377073381776	0.2088639820930081	0.7018790472291906	1.788127167091989	0.27098968759677555	0.771587477417901	1.8003803409880734	0.21816483954870222	0.9673651403694674	1.768232628672827	0.045770851585570274	0.5757920545437982	0.8107567187938707	0.03520207346192929	0.7118855340356289	1.2840970699827907	0.03253605830758665	0.8561162525645369	1.7023958126327108	0.056119622362608826	0.7148752395875156	1.7894052514629815	-0.006852702389251476	0.7365235738738837	1.761382554254075	0.06259362334449549	0.9766276442652226	1.7635294747655312	0.16537864840792724	0.44337757322629656	0.23489018975655146	0.1747346706732959	0.30074485655321864	0.011933544702781103	0.15646359238910182	0.261873198350266	0.1565016919301008	0.33939798007350036	0.4600254043375194	0.3672462240301408	0.38764862967119723	0.5643587411644216	0.6434236214632194	0.3819818073005004	0.5269638935624721	0.8993044821220615	0.3269614380121274	0.4885044456553832	1.014970596789789	0.3557535907718341	0.4564727676704135	1.052351079410915	0.37322431446839	0.5230061929626083	1.060627746287687	0.00352583361298882	0.5367237660970573	0.3222502394026001	-0.022080983125929432	0.6576915007225549	0.6032014739744473	-0.06042415543236424	0.5478453820887091	0.8243441776984668	-0.04396774067557222	0.4189064482565784	0.9123999347116358	-0.07263669701214429	0.43166637301721245	0.9259948982841727	-0.08756047016268627	0.5010520201656466	0.9228780061047698
222	3.7	0.26610891643874646	0.575674675608116	0.8108004465566433	0.26969212096901096	0.7227901986778664	1.3161116890138418	0.23110198187082567	0.9104073589384878	1.7278606155451852	0.20928160421667352	0.702044440829875	1.7882274002165934	0.2719947396431148	0.7711133892529904	1.800373269211308	0.21836167860877587	0.9677415724281877	1.7689827560966616	0.046158578934615925	0.5755028004292558	0.8086959057864589	0.03517225117824969	0.7119044956300742	1.2820963460695554	0.032413780988626725	0.8563662233808564	1.702415317032394	0.05612829836048391	0.7147523059827503	1.78938596119897	-0.007198435791580249	0.7367481106363795	1.7624655139985945	0.06263030158632131	0.9765636053688803	1.7635283824146704	0.16539107183332927	0.44349542682906684	0.2339954287691534	0.17962522988461502	0.30402126781166067	0.01138522969261228	0.15867562984520864	0.26321809694927517	0.15512456462857158	0.33627657518515885	0.454252599383662	0.36701862353565357	0.3870435775301437	0.5652204681546534	0.6454542517052393	0.37378730611693883	0.5304330627898955	0.9009607142925242	0.3171216790310798	0.4962611116613277	1.0230880896066306	0.3421321469807487	0.47295934292746517	1.0631920891641589	0.36484734160462146	0.5333808392620455	1.0666248331033297	0.0013986789852123587	0.5317085512597028	0.3223744774607812	-0.0296640300428176	0.6542173303098158	0.6058843243430705	-0.05552279547751599	0.5371653310242183	0.8251708052826513	-0.03965913827173154	0.41739894114564347	0.9150779798025981	-0.06283682852990552	0.4152240986229527	0.933292148546365	-0.08680565418471153	0.5025481285980852	0.9278906206547217
223	3.716666666666667	0.26498446434489265	0.5745692168960479	0.8076118444240078	0.27035109438231153	0.722677129141222	1.3127628072469235	0.23095672251914867	0.9102079486873232	1.7279498556689183	0.21035090099024165	0.7025156114484119	1.7884315882528263	0.27417046225436786	0.7702355288775875	1.8002624992367167	0.21794280990259682	0.9680048897046649	1.769664974730211	0.04643929266737118	0.5750627584115364	0.8054966321261775	0.03503077841518114	0.7117794762899837	1.2808109339878024	0.03248461658068831	0.8565256503099832	1.7024259840959637	0.05612637329573804	0.7146694655566264	1.7894453958189922	-0.007447911572952464	0.737002728926345	1.7634825639818532	0.06268814113698408	0.9764582094390372	1.7635382626073983	0.1658418509968782	0.4437880876832948	0.2328273446822706	0.18286674357850957	0.30523301647901147	0.011143577761427936	0.16080698405107977	0.2660966034707111	0.15352579332370594	0.3343709225759862	0.4498375440670711	0.36670677884101965	0.3856707296139818	0.5656762747600619	0.646581097037229	0.3633650381687005	0.5276552217700098	0.9009703625757371	0.30599476592143177	0.4974798139446208	1.0229776703650917	0.32621700251206376	0.47859636201998657	1.0665895059004253	0.35488855969873034	0.5408314738566681	1.067306041414823	-0.0018479046615971803	0.5279138730580356	0.3224884900269878	-0.03879321687992182	0.6449247967964477	0.6084077381205898	-0.04838708023184346	0.5207415754291529	0.8254561584116329	-0.0298062585750654	0.4154020922450283	0.9186219548485286	-0.052430570106058415	0.3997462952770525	0.9406027576406459	-0.08299758653904592	0.49454757718310405	0.9346004763116338
224	3.733333333333333	0.26337142894307486	0.5729855413715681	0.802715768780247	0.2713375300619598	0.722836866212242	1.3097052128029485	0.23130720059944299	0.9106260876076055	1.7285650474103675	0.2117613654433337	0.7031907127028998	1.7887119678517867	0.2766267861416515	0.7700027219629687	1.8003388248042587	0.2174809418858143	0.9680996763316101	1.7700242485835997	0.04642402893034445	0.5743893468367766	0.8015214501038272	0.034861048111431835	0.711627726325159	1.2802637292746053	0.03283651475330257	0.8564721943536999	1.702459217834903	0.056113368022981315	0.7146480009367365	1.789602691600689	-0.00735041246849576	0.7369850802096867	1.7633852719283842	0.0626256353226582	0.976282211272936	1.7635469695139534	0.16694844171373327	0.44417360115720117	0.23193744444298178	0.18465546132125013	0.3055606676513584	0.010851711453821357	0.16206083379540379	0.2696792538200792	0.15254890774391483	0.3330098280291531	0.4458754120997491	0.3663410955809291	0.3835804264260898	0.564717286237004	0.6468298511748142	0.3502869221122947	0.5207853569294242	0.8990763187820471	0.29103836117679305	0.49554304361606494	1.0142860943198047	0.3081636439218928	0.47103688093047247	1.0611972525356983	0.3424843826552415	0.5442665404078194	1.0643627442035892	-0.0057797816349860155	0.5260551853052532	0.32284736761699334	-0.04692542297590533	0.6300080963517637	0.610034996461093	-0.03923886393122928	0.5025513003821614	0.825335839412461	-0.012095450439274043	0.41210945076544847	0.9221112494222443	-0.039274120092670374	0.39039910267720807	0.9484223723405396	-0.07334526271399659	0.47538212439304856	0.9414836175951469
